<svg width="1280" height="720" viewBox="0 0 1280 720" fill="none" xmlns="http://www.w3.org/2000/svg">
<rect width="1280" height="720" fill="#E5E5E5"/>
<g clip-path="url(#clip0)">
<rect width="1280" height="720" fill="white"/>
<path opacity="0.7" d="M-38.4345 737.095C-44.2697 724.581 -38.8558 709.707 -26.3423 703.871L128.718 631.565C141.232 625.73 156.106 631.144 161.941 643.658V643.658C167.776 656.171 162.363 671.046 149.849 676.881L-5.21139 749.187C-17.7249 755.022 -32.5994 749.608 -38.4345 737.095V737.095Z" fill="#9584FF" fill-opacity="0.7"/>
<path opacity="0.7" d="M856.565 302.705C850.73 290.192 856.144 275.317 868.658 269.482L1033.61 192.565C1046.12 186.73 1060.99 192.144 1066.83 204.658V204.658C1072.66 217.171 1067.25 232.046 1054.74 237.881L889.789 314.797C877.275 320.632 862.401 315.219 856.565 302.705V302.705Z" fill="#84FF89" fill-opacity="0.7"/>
<path opacity="0.7" d="M219.565 617.055C213.73 604.542 219.144 589.667 231.658 583.832L375.912 516.565C388.425 510.73 403.3 516.144 409.135 528.658V528.658C414.97 541.171 409.556 556.046 397.042 561.881L252.789 629.148C240.275 634.983 225.401 629.569 219.565 617.055V617.055Z" fill="#D884FF" fill-opacity="0.7"/>
<path opacity="0.7" d="M445.565 501.663C439.73 489.15 445.144 474.275 457.658 468.44L781.21 317.565C793.723 311.73 808.598 317.144 814.433 329.658V329.658C820.268 342.171 814.854 357.046 802.34 362.881L478.789 513.756C466.275 519.591 451.401 514.177 445.565 501.663V501.663Z" fill="#FF8484" fill-opacity="0.69"/>
<path opacity="0.7" d="M524.565 45.7052C518.73 33.1917 524.144 18.3172 536.658 12.482L701.606 -64.4345C714.119 -70.2696 728.994 -64.8558 734.829 -52.3423V-52.3423C740.664 -39.8288 735.25 -24.9542 722.737 -19.1191L557.789 57.7974C545.275 63.6326 530.401 58.2187 524.565 45.7052V45.7052Z" fill="#FF84CE" fill-opacity="0.7"/>
<path opacity="0.7" d="M-112.435 360.055C-118.27 347.542 -112.856 332.667 -100.342 326.832L43.9116 259.565C56.4251 253.73 71.2996 259.144 77.1347 271.658V271.658C82.9699 284.171 77.556 299.046 65.0425 304.881L-79.2114 372.148C-91.7249 377.983 -106.599 372.569 -112.435 360.055V360.055Z" fill="#FFFA84" fill-opacity="0.7"/>
<path opacity="0.7" d="M113.565 244.663C107.73 232.15 113.144 217.275 125.658 211.44L449.21 60.5654C461.723 54.7303 476.598 60.1442 482.433 72.6577V72.6577C488.268 85.1712 482.854 100.046 470.34 105.881L146.789 256.756C134.275 262.591 119.401 257.177 113.565 244.663V244.663Z" fill="#C9FF84" fill-opacity="0.7"/>
<path opacity="0.7" d="M1177.57 563.705C1171.73 551.192 1177.14 536.317 1189.66 530.482L1354.61 453.565C1367.12 447.73 1381.99 453.144 1387.83 465.658V465.658C1393.66 478.171 1388.25 493.046 1375.74 498.881L1210.79 575.797C1198.28 581.632 1183.4 576.219 1177.57 563.705V563.705Z" fill="#84FFE9" fill-opacity="0.7"/>
<path opacity="0.7" d="M766.565 762.663C760.73 750.15 766.144 735.275 778.658 729.44L1102.21 578.565C1114.72 572.73 1129.6 578.144 1135.43 590.658V590.658C1141.27 603.171 1135.85 618.046 1123.34 623.881L799.789 774.756C787.275 780.591 772.401 775.177 766.565 762.663V762.663Z" fill="#FFBF84" fill-opacity="0.7"/>
<path opacity="0.7" d="M941.565 63.0945C935.73 50.581 941.144 35.7065 953.658 29.8713L1108.72 -42.4346C1121.23 -48.2697 1136.11 -42.8558 1141.94 -30.3423V-30.3423C1147.78 -17.8288 1142.36 -2.95433 1129.85 2.88081L974.789 75.1867C962.275 81.0218 947.401 75.608 941.565 63.0945V63.0945Z" fill="#84FFE9" fill-opacity="0.7"/>
<path opacity="0.7" d="M-115.435 563.663C-121.27 551.15 -115.856 536.275 -103.342 530.44L220.21 379.565C232.723 373.73 247.598 379.144 253.433 391.658V391.658C259.268 404.171 253.854 419.046 241.34 424.881L-82.2114 575.756C-94.7249 581.591 -109.599 576.177 -115.435 563.663V563.663Z" fill="#FFF384" fill-opacity="0.7"/>
<path opacity="0.7" d="M536.565 244.663C530.73 232.15 536.144 217.275 548.658 211.44L872.21 60.5654C884.723 54.7303 899.598 60.1442 905.433 72.6577V72.6577C911.268 85.1712 905.854 100.046 893.34 105.881L569.789 256.756C557.275 262.591 542.401 257.177 536.565 244.663V244.663Z" fill="#FF84A1" fill-opacity="0.7"/>
<path opacity="0.7" d="M289.565 369.705C283.73 357.192 289.144 342.317 301.658 336.482L466.606 259.566C479.119 253.73 493.994 259.144 499.829 271.658V271.658C505.664 284.171 500.25 299.046 487.737 304.881L322.789 381.797C310.275 387.633 295.401 382.219 289.565 369.705V369.705Z" fill="#84FFAE" fill-opacity="0.7"/>
<path opacity="0.7" d="M321.565 767.663C315.73 755.15 321.144 740.275 333.658 734.44L657.21 583.565C669.723 577.73 684.598 583.144 690.433 595.658V595.658C696.268 608.171 690.854 623.046 678.34 628.881L354.789 779.756C342.275 785.591 327.401 780.177 321.565 767.663V767.663Z" fill="#84FFDA" fill-opacity="0.7"/>
<path opacity="0.7" d="M721.565 563.705C715.73 551.192 721.144 536.317 733.658 530.482L898.606 453.565C911.119 447.73 925.994 453.144 931.829 465.658V465.658C937.664 478.171 932.25 493.046 919.737 498.881L754.789 575.797C742.275 581.632 727.401 576.219 721.565 563.705V563.705Z" fill="#EEFF84" fill-opacity="0.7"/>
<path opacity="0.7" d="M1120.57 168.705C1114.73 156.192 1120.14 141.317 1132.66 135.482L1297.61 58.5655C1310.12 52.7304 1324.99 58.1442 1330.83 70.6577V70.6577C1336.66 83.1712 1331.25 98.0458 1318.74 103.881L1153.79 180.797C1141.28 186.633 1126.4 181.219 1120.57 168.705V168.705Z" fill="#8489FF" fill-opacity="0.7"/>
<path opacity="0.7" d="M-10.4345 97.7052C-16.2697 85.1917 -10.8558 70.3172 1.6577 64.482L166.606 -12.4345C179.119 -18.2696 193.994 -12.8558 199.829 -0.342255V-0.342255C205.664 12.1712 200.25 27.0458 187.737 32.8809L22.7886 109.797C10.2751 115.633 -4.5994 110.219 -10.4345 97.7052V97.7052Z" fill="#FFB084" fill-opacity="0.7"/>
<path opacity="0.7" d="M973.566 448.663C967.73 436.15 973.144 421.275 985.658 415.44L1309.21 264.565C1321.72 258.73 1336.6 264.144 1342.43 276.658V276.658C1348.27 289.171 1342.85 304.046 1330.34 309.881L1006.79 460.756C994.275 466.591 979.401 461.177 973.566 448.663V448.663Z" fill="#FFD584" fill-opacity="0.7"/>
</g>
<defs>
<clipPath id="clip0">
<rect width="1280" height="720" fill="white"/>
</clipPath>
</defs>
</svg>
